<svg width="138" height="118" viewBox="0 0 138 118" fill="none" xmlns="http://www.w3.org/2000/svg">
<path d="M135.11 65.9482L85.8222 115.112C83.9123 117.047 81.3862 118 78.8602 118C76.3342 118 73.8144 117.04 71.8921 115.119C68.0415 111.278 68.0415 105.056 71.8921 101.215L104.367 68.8365H9.8571C4.41386 68.8365 0 64.4425 0 59.0038C0 53.5651 4.41386 49.1711 9.8571 49.1711H104.367L71.8983 16.7847C68.0477 12.9438 68.0477 6.72157 71.8983 2.88067C75.7489 -0.960224 81.9869 -0.960224 85.8376 2.88067L135.126 52.0441C138.961 55.9004 138.961 62.1073 135.11 65.9482Z" fill="#FF3343"/>
</svg>
